
<svg width="16" height="8" viewBox="0 0 16 8" fill="none" xmlns="http://www.w3.org/2000/svg">
<path d="M4 8C2.89333 8 1.95013 7.60986 1.1704 6.8296C0.390667 6.04933 0.000533333 5.10613 0 4C0 2.89333 0.390133 1.95013 1.1704 1.1704C1.95067 0.390667 2.89387 0.000533333 4 0H6.4C6.62667 0 6.8168 0.0768001 6.9704 0.2304C7.124 0.384 7.20053 0.573866 7.2 0.8C7.2 1.02667 7.1232 1.2168 6.9696 1.3704C6.816 1.524 6.62613 1.60053 6.4 1.6H4C3.33333 1.6 2.76667 1.83333 2.3 2.3C1.83333 2.76667 1.6 3.33333 1.6 4C1.6 4.66667 1.83333 5.23333 2.3 5.7C2.76667 6.16666 3.33333 6.4 4 6.4H6.4C6.62667 6.4 6.8168 6.4768 6.9704 6.6304C7.124 6.784 7.20053 6.97386 7.2 7.2C7.2 7.42666 7.1232 7.6168 6.9696 7.7704C6.816 7.924 6.62613 8.00053 6.4 8H4ZM5.6 4.8C5.37333 4.8 5.18347 4.7232 5.0304 4.5696C4.87733 4.416 4.80053 4.22613 4.8 4C4.8 3.77333 4.8768 3.58347 5.0304 3.4304C5.184 3.27733 5.37387 3.20053 5.6 3.2H10.4C10.6267 3.2 10.8168 3.2768 10.9704 3.4304C11.124 3.584 11.2005 3.77387 11.2 4C11.2 4.22667 11.1232 4.4168 10.9696 4.5704C10.816 4.724 10.6261 4.80053 10.4 4.8H5.6ZM9.6 8C9.37333 8 9.18347 7.9232 9.0304 7.7696C8.87733 7.616 8.80053 7.42613 8.8 7.2C8.8 6.97333 8.8768 6.78346 9.0304 6.6304C9.184 6.47733 9.37387 6.40053 9.6 6.4H12C12.6667 6.4 13.2333 6.16666 13.7 5.7C14.1667 5.23333 14.4 4.66667 14.4 4C14.4 3.33333 14.1667 2.76667 13.7 2.3C13.2333 1.83333 12.6667 1.6 12 1.6H9.6C9.37333 1.6 9.18347 1.5232 9.0304 1.3696C8.87733 1.216 8.80053 1.02613 8.8 0.8C8.8 0.573333 8.8768 0.383467 9.0304 0.2304C9.184 0.0773334 9.37387 0.000533333 9.6 0H12C13.1067 0 14.0501 0.390133 14.8304 1.1704C15.6107 1.95067 16.0005 2.89387 16 4C16 5.10666 15.6099 6.05013 14.8296 6.8304C14.0493 7.61066 13.1061 8.00053 12 8H9.6Z" fill="#26BC0D"/>
</svg>
