<svg width="13" height="14" viewBox="0 0 13 14" fill="none" xmlns="http://www.w3.org/2000/svg">
<path d="M7.20555 9.33366C7.20555 9.65583 6.94438 9.91699 6.62221 9.91699C6.30005 9.91699 6.03888 9.65583 6.03888 9.33366C6.03888 9.01149 6.30005 8.75033 6.62221 8.75033C6.94438 8.75033 7.20555 9.01149 7.20555 9.33366Z" fill="#F4F5FF"/>
<path d="M7.05971 4.08366C7.05971 3.84203 6.86384 3.64616 6.62221 3.64616C6.38059 3.64616 6.18471 3.84203 6.18471 4.08366V7.58366C6.18471 7.82528 6.38059 8.02116 6.62221 8.02116C6.86384 8.02116 7.05971 7.82528 7.05971 7.58366V4.08366Z" fill="#F4F5FF"/>
<path fill-rule="evenodd" clip-rule="evenodd" d="M6.62221 0.729492C3.15893 0.729492 0.351379 3.53704 0.351379 7.00033C0.351379 10.4636 3.15893 13.2712 6.62221 13.2712C10.0855 13.2712 12.893 10.4636 12.893 7.00033C12.893 3.53704 10.0855 0.729492 6.62221 0.729492ZM1.22638 7.00033C1.22638 4.02029 3.64218 1.60449 6.62221 1.60449C9.60225 1.60449 12.018 4.02029 12.018 7.00033C12.018 9.98036 9.60225 12.3962 6.62221 12.3962C3.64218 12.3962 1.22638 9.98036 1.22638 7.00033Z" fill="#F4F5FF"/>
</svg>
