<svg width="25" height="25" viewBox="0 0 25 25" fill="none" xmlns="http://www.w3.org/2000/svg">
<path d="M9 22H15C20 22 22 20 22 15V9C22 4 20 2 15 2H9C4 2 2 4 2 9V15C2 20 4 22 9 22Z" fill="url(#paint0_linear_15_857)" fill-opacity="0.2" stroke="white" stroke-linecap="round" stroke-linejoin="round"/>
<path d="M6.88086 18.1501V16.0801" stroke="white" stroke-linecap="round"/>
<path d="M12 18.15V14.01" stroke="white" stroke-linecap="round"/>
<path d="M17.1191 18.1499V11.9299" stroke="white" stroke-linecap="round"/>
<path d="M17.1209 5.84998L16.6609 6.38998C14.1109 9.36998 10.6909 11.48 6.88086 12.43" stroke="white" stroke-linecap="round"/>
<path d="M14.1895 5.84998H17.1195V8.76998" stroke="white" stroke-linecap="round" stroke-linejoin="round"/>
<rect x="13" y="13" width="12" height="12" rx="6" fill="white"/>
<path fill-rule="evenodd" clip-rule="evenodd" d="M18.0625 17.5C18.0625 17.2613 18.1613 17.0324 18.3371 16.8636C18.5129 16.6948 18.7514 16.6 19 16.6C19.2486 16.6 19.4871 16.6948 19.6629 16.8636C19.8387 17.0324 19.9375 17.2613 19.9375 17.5V18.1H18.0625V17.5ZM17.4375 18.1V17.5C17.4375 17.1022 17.6021 16.7206 17.8951 16.4393C18.1882 16.158 18.5856 16 19 16C19.4144 16 19.8118 16.158 20.1049 16.4393C20.3979 16.7206 20.5625 17.1022 20.5625 17.5V18.1H21.1875C21.2704 18.1 21.3499 18.1316 21.4085 18.1879C21.4671 18.2441 21.5 18.3204 21.5 18.4V21.1C21.5 21.3387 21.4012 21.5676 21.2254 21.7364C21.0496 21.9052 20.8111 22 20.5625 22H17.4375C17.1889 22 16.9504 21.9052 16.7746 21.7364C16.5988 21.5676 16.5 21.3387 16.5 21.1V18.4C16.5 18.3204 16.5329 18.2441 16.5915 18.1879C16.6501 18.1316 16.7296 18.1 16.8125 18.1H17.4375ZM19.3125 20.05C19.3125 19.9307 19.3619 19.8162 19.4498 19.7318C19.5377 19.6474 19.6569 19.6 19.7812 19.6H19.7844C19.9087 19.6 20.0279 19.6474 20.1158 19.7318C20.2037 19.8162 20.2531 19.9307 20.2531 20.05V20.053C20.2531 20.1723 20.2037 20.2868 20.1158 20.3712C20.0279 20.4556 19.9087 20.503 19.7844 20.503H19.7812C19.6569 20.503 19.5377 20.4556 19.4498 20.3712C19.3619 20.2868 19.3125 20.1723 19.3125 20.053V20.05Z" fill="#101812"/>
<defs>
<linearGradient id="paint0_linear_15_857" x1="12" y1="2" x2="12" y2="22" gradientUnits="userSpaceOnUse">
<stop stop-color="white"/>
<stop offset="1" stop-color="#707070"/>
</linearGradient>
</defs>
</svg>
