<svg width="92" height="38" viewBox="0 0 92 38" fill="none" xmlns="http://www.w3.org/2000/svg">
<path opacity="0.5" d="M19.2364 2.27823L1 36.7247H91V1.09155L86.3936 6.35106C86.1288 6.65335 85.6643 6.67056 85.3779 6.3887L80.5393 1.62659C80.247 1.33899 79.7711 1.36366 79.5102 1.67993L71.9009 10.9033C71.6174 11.247 71.0888 11.241 70.8131 10.8909L63.7637 1.93937C63.4503 1.54134 62.8306 1.59881 62.5957 2.04772L55.7558 15.1197C55.516 15.578 54.8787 15.6259 54.5731 15.2087L44.8822 1.97993C44.5795 1.56672 43.9522 1.60455 43.7073 2.05443C39.6376 9.53018 32.349 22.9145 32.048 23.4496C31.7491 23.981 24.5599 10.2423 20.4745 2.28193C20.2163 1.77891 19.5009 1.77853 19.2364 2.27823Z" fill="url(#paint0_linear_1_2170)"/>
<path d="M1 36.9083L19.2364 2.46183C19.5009 1.96213 20.2163 1.9625 20.4745 2.46553C24.5599 10.4259 31.7491 24.1646 32.048 23.6332C32.349 23.0981 39.6376 9.71377 43.7073 2.23802C43.9522 1.78815 44.5795 1.75031 44.8822 2.16352L54.5731 15.3923C54.8787 15.8095 55.516 15.7616 55.7558 15.3033L62.5957 2.23131C62.8306 1.78241 63.4503 1.72493 63.7637 2.12297L70.8131 11.0745C71.0888 11.4246 71.6174 11.4306 71.9009 11.0869L79.5102 1.86352C79.7711 1.54725 80.247 1.52259 80.5393 1.81019L85.3779 6.57229C85.6643 6.85416 86.1288 6.83694 86.3936 6.53466L91 1.27515" stroke="#26BC0D" stroke-width="0.69869" stroke-linecap="round"/>
<defs>
<linearGradient id="paint0_linear_1_2170" x1="49.7671" y1="-2.83235" x2="57" y2="23.9081" gradientUnits="userSpaceOnUse">
<stop stop-color="#26BC0D"/>
<stop offset="1" stop-opacity="0"/>
</linearGradient>
</defs>
</svg>
