<svg width="59" height="59" viewBox="0 0 59 59" fill="none" xmlns="http://www.w3.org/2000/svg">
<circle cx="29.5" cy="29.5" r="28.5" fill="url(#paint0_linear_15_837)" stroke="white" stroke-width="2"/>
<circle cx="23.5" cy="23.5" r="23.5" transform="matrix(1 0 0 -1 6 53)" fill="url(#paint1_linear_15_837)"/>
<path fill-rule="evenodd" clip-rule="evenodd" d="M30.0538 39.1264L35.9568 26.6184L36.5968 26.7075L32.4084 41.7682L32.4097 41.7684L32.3887 41.8397L32.3885 41.8397L27.386 41.8397L24.324 33.5701L24.3024 33.5752C24.0324 33.4131 20.4658 33.381 18.1793 33.381C15.4456 33.381 15.2247 33.4452 15.2247 34.2362C15.2247 34.6406 15.3684 34.849 15.7016 34.931C15.9874 35.0111 16.8607 35.061 19.1016 35.1251C22.5963 35.2374 23.2801 35.3193 23.964 35.754C24.6952 36.2386 24.9652 36.9654 24.9652 38.4655C24.9652 40.3379 24.5199 41.2571 23.4239 41.6776C22.7892 41.9198 21.453 42 18.2915 42C15.002 42 13.7149 41.8557 12.9697 41.3711C12.2385 40.9026 12 40.2737 12 38.7879V38.2713H15.13C15.13 38.9162 15.1931 39.1264 15.4473 39.2885C15.7489 39.4827 16.0996 39.5148 18.3704 39.5148C21.8335 39.5148 21.8335 39.5148 21.8335 38.5617C21.8335 37.9168 21.5951 37.7547 20.5623 37.7386L18.0197 37.6424L16.303 37.5623L15.4456 37.5302C12.8241 37.45 12.0929 36.7713 12.0929 34.3983C12.0929 32.3478 12.6646 31.4285 14.127 31.1043C14.746 30.9742 19.6154 30.9101 22.1562 30.9101C25.2388 30.9101 25.9612 31.0562 26.7082 31.5728C26.7082 31.5728 26.8629 31.762 27.087 32.2783H27.1124L29.5305 39.1264H30.0538ZM46.0008 31.074L41.8871 41.8397H36.9143L35.0977 35.1002L36.2164 31.074H36.7074L39.1219 39.1264H39.7269L42.585 31.074H46.0008Z" fill="white"/>
<path d="M39.989 30.495L37.7919 26.4919C37.7043 26.5294 37.6166 26.5632 37.5254 26.5917L38.4039 31.0883C38.9545 30.9546 39.4858 30.7569 39.989 30.495Z" fill="#58FF29"/>
<path d="M34.2061 24.0602L29.7259 23.5204C29.6803 24.094 29.7031 24.6712 29.7926 25.2413L34.2166 24.3434C34.2096 24.2472 34.2061 24.1546 34.2061 24.0602Z" fill="#58FF29"/>
<path d="M34.5066 22.8808C34.5697 22.7597 34.6416 22.6439 34.7223 22.5334L31.4064 19.4247C31.0294 19.8736 30.7068 20.3671 30.4473 20.898L32.5988 21.8493L34.5066 22.8808Z" fill="#58FF29"/>
<path d="M36.0174 21.6069L35.1319 17.1122C34.5813 17.2458 34.05 17.4453 33.5468 17.7072L35.7509 21.7067C35.8386 21.6693 35.928 21.6354 36.0174 21.6069Z" fill="#58FF29"/>
<path d="M34.6746 25.5994L30.7363 27.8352C31.0309 28.3286 31.3816 28.7812 31.7832 29.1873L34.8465 25.8221C34.7869 25.7508 34.729 25.6778 34.6746 25.5994Z" fill="#58FF29"/>
<path d="M39.4851 17.4668C38.9608 17.2441 38.4155 17.0891 37.8561 17L37.3301 21.5536C37.4213 21.5749 37.5107 21.5999 37.6001 21.6319L39.4851 17.4668Z" fill="#58FF29"/>
<path d="M39.3406 24.1349L43.8225 24.6658C43.8681 24.0922 43.8435 23.5167 43.7524 22.9467L39.3301 23.8517C39.3371 23.9461 39.3424 24.0405 39.3406 24.1349Z" fill="#58FF29"/>
<path d="M38.8709 22.594L42.8057 20.3528C42.5093 19.8611 42.1586 19.4068 41.7553 19.0024L38.6973 22.3731C38.7586 22.4425 38.8165 22.5174 38.8709 22.594Z" fill="#58FF29"/>
<path d="M43.0975 27.3061L41.0599 26.3886L39.0066 25.3821C38.9522 25.4818 38.8909 25.5763 38.8242 25.6671L42.133 28.783C42.5135 28.3341 42.8362 27.8388 43.0975 27.3061Z" fill="#58FF29"/>
<defs>
<linearGradient id="paint0_linear_15_837" x1="59" y1="59" x2="51.805" y2="-6.33141" gradientUnits="userSpaceOnUse">
<stop stop-color="#0E0B1A"/>
<stop offset="1" stop-color="#272727"/>
</linearGradient>
<linearGradient id="paint1_linear_15_837" x1="47" y1="47" x2="41.2684" y2="-5.04366" gradientUnits="userSpaceOnUse">
<stop stop-color="#0E0B1A"/>
<stop offset="1" stop-color="#272727"/>
</linearGradient>
</defs>
</svg>
