<svg width="24" height="24" viewBox="0 0 24 24" fill="none" xmlns="http://www.w3.org/2000/svg">
<g filter="url(#filter0_b_15_873)">
<path d="M9 22H15C20 22 22 20 22 15V9C22 4 20 2 15 2H9C4 2 2 4 2 9V15C2 20 4 22 9 22Z" fill="url(#paint0_linear_15_873)" fill-opacity="0.2"/>
<path d="M9 22H15C20 22 22 20 22 15V9C22 4 20 2 15 2H9C4 2 2 4 2 9V15C2 20 4 22 9 22Z" stroke="white" stroke-linecap="round" stroke-linejoin="round"/>
</g>
<path d="M7.33 14.49L9.71 11.4C10.05 10.96 10.68 10.88 11.12 11.22L12.95 12.66C13.39 13 14.02 12.92 14.36 12.49L16.67 9.51001" stroke="white" stroke-linecap="round" stroke-linejoin="round"/>
<defs>
<filter id="filter0_b_15_873" x="-2.5" y="-2.5" width="29" height="29" filterUnits="userSpaceOnUse" color-interpolation-filters="sRGB">
<feFlood flood-opacity="0" result="BackgroundImageFix"/>
<feGaussianBlur in="BackgroundImageFix" stdDeviation="2"/>
<feComposite in2="SourceAlpha" operator="in" result="effect1_backgroundBlur_15_873"/>
<feBlend mode="normal" in="SourceGraphic" in2="effect1_backgroundBlur_15_873" result="shape"/>
</filter>
<linearGradient id="paint0_linear_15_873" x1="12" y1="2" x2="12" y2="22" gradientUnits="userSpaceOnUse">
<stop stop-color="white"/>
<stop offset="1" stop-color="#707070"/>
</linearGradient>
</defs>
</svg>
