<svg width="24" height="24" viewBox="0 0 24 24" fill="none" xmlns="http://www.w3.org/2000/svg">
<rect x="8" y="7" width="13" height="11" fill="url(#paint0_linear_36_735)"/>
<path d="M19 4.99998H9C8.5925 4.94184 8.17705 4.97935 7.78656 5.10955C7.39606 5.23976 7.04123 5.45907 6.75016 5.75014C6.4591 6.04121 6.23978 6.39604 6.10958 6.78653C5.97937 7.17703 5.94186 7.59247 6 7.99998V18C6 18.5304 5.78929 19.0391 5.41421 19.4142C5.03914 19.7893 4.53043 20 4 20H19C19.4075 20.0581 19.823 20.0206 20.2134 19.8904C20.6039 19.7602 20.9588 19.5409 21.2498 19.2498C21.5409 18.9587 21.7602 18.6039 21.8904 18.2134C22.0206 17.8229 22.0581 17.4075 22 17V7.99998C22.0581 7.59247 22.0206 7.17703 21.8904 6.78653C21.7602 6.39604 21.5409 6.04121 21.2498 5.75014C20.9588 5.45907 20.6039 5.23976 20.2134 5.10955C19.823 4.97935 19.4075 4.94184 19 4.99998ZM14 15.577C14.0179 15.7024 14.0063 15.8302 13.9663 15.9503C13.9262 16.0704 13.8587 16.1796 13.7692 16.2691C13.6796 16.3587 13.5705 16.4262 13.4503 16.4662C13.3302 16.5063 13.2024 16.5179 13.077 16.5H9.923C9.79763 16.5179 9.66982 16.5063 9.54968 16.4662C9.42954 16.4262 9.32038 16.3587 9.23083 16.2691C9.14129 16.1796 9.07381 16.0704 9.03374 15.9503C8.99368 15.8302 8.98213 15.7024 9 15.577V13.423C8.98213 13.2976 8.99368 13.1698 9.03374 13.0497C9.07381 12.9295 9.14129 12.8204 9.23083 12.7308C9.32038 12.6413 9.42954 12.5738 9.54968 12.5337C9.66982 12.4937 9.79763 12.4821 9.923 12.5H13.077C13.2024 12.4821 13.3302 12.4937 13.4503 12.5337C13.5705 12.5738 13.6796 12.6413 13.7692 12.7308C13.8587 12.8204 13.9262 12.9295 13.9663 13.0497C14.0063 13.1698 14.0179 13.2976 14 13.423V15.577ZM19 16.75H17C16.8011 16.75 16.6103 16.671 16.4697 16.5303C16.329 16.3897 16.25 16.1989 16.25 16C16.25 15.8011 16.329 15.6103 16.4697 15.4696C16.6103 15.329 16.8011 15.25 17 15.25H19C19.1989 15.25 19.3897 15.329 19.5303 15.4696C19.671 15.6103 19.75 15.8011 19.75 16C19.75 16.1989 19.671 16.3897 19.5303 16.5303C19.3897 16.671 19.1989 16.75 19 16.75ZM19 13.75H17C16.8011 13.75 16.6103 13.671 16.4697 13.5303C16.329 13.3897 16.25 13.1989 16.25 13C16.25 12.8011 16.329 12.6103 16.4697 12.4696C16.6103 12.329 16.8011 12.25 17 12.25H19C19.1989 12.25 19.3897 12.329 19.5303 12.4696C19.671 12.6103 19.75 12.8011 19.75 13C19.75 13.1989 19.671 13.3897 19.5303 13.5303C19.3897 13.671 19.1989 13.75 19 13.75ZM19 9.74998H9.75C9.55109 9.74998 9.36032 9.67096 9.21967 9.53031C9.07902 9.38966 9 9.19889 9 8.99998C9 8.80107 9.07902 8.6103 9.21967 8.46965C9.36032 8.329 9.55109 8.24998 9.75 8.24998H19C19.1989 8.24998 19.3897 8.329 19.5303 8.46965C19.671 8.6103 19.75 8.80107 19.75 8.99998C19.75 9.19889 19.671 9.38966 19.5303 9.53031C19.3897 9.67096 19.1989 9.74998 19 9.74998Z" fill="url(#paint1_linear_36_735)"/>
<path d="M3.27195 19.0053C3.42385 19.0681 3.58664 19.1002 3.751 19.1C3.91515 19.0998 4.07767 19.0674 4.22928 19.0044C4.38089 18.9415 4.51861 18.8493 4.63459 18.7332C4.75057 18.617 4.84254 18.4791 4.90523 18.3274C4.96793 18.1757 5.00013 18.0131 5 17.849V9.59998H4.5C3.97006 9.60156 3.46227 9.81278 3.08754 10.1875C2.71281 10.5622 2.50158 11.07 2.5 11.6V17.849C2.49974 18.0133 2.53192 18.1761 2.59469 18.328C2.65747 18.4799 2.74961 18.6179 2.86582 18.7342C2.98204 18.8504 3.12006 18.9425 3.27195 19.0053Z" fill="url(#paint2_linear_36_735)" fill-opacity="0.4"/>
<path d="M3.27195 19.0053C3.42385 19.0681 3.58664 19.1002 3.751 19.1C3.91515 19.0998 4.07767 19.0674 4.22928 19.0044C4.38089 18.9415 4.51861 18.8493 4.63459 18.7332C4.75057 18.617 4.84254 18.4791 4.90523 18.3274C4.96793 18.1757 5.00013 18.0131 5 17.849V9.59998H4.5C3.97006 9.60156 3.46227 9.81278 3.08754 10.1875C2.71281 10.5622 2.50158 11.07 2.5 11.6V17.849C2.49974 18.0133 2.53192 18.1761 2.59469 18.328C2.65747 18.4799 2.74961 18.6179 2.86582 18.7342C2.98204 18.8504 3.12006 18.9425 3.27195 19.0053Z" fill="url(#paint3_linear_36_735)"/>
<defs>
<linearGradient id="paint0_linear_36_735" x1="21.0381" y1="7.00001" x2="7.86185" y2="7.40902" gradientUnits="userSpaceOnUse">
<stop stop-color="#FFCB59"/>
<stop offset="1" stop-color="#EBA200"/>
</linearGradient>
<linearGradient id="paint1_linear_36_735" x1="12.0133" y1="4.97339" x2="12.0133" y2="20.0266" gradientUnits="userSpaceOnUse">
<stop stop-color="#666B67"/>
<stop offset="1" stop-color="#08100A"/>
</linearGradient>
<linearGradient id="paint2_linear_36_735" x1="12.5133" y1="5.57338" x2="12.5133" y2="20.6266" gradientUnits="userSpaceOnUse">
<stop stop-color="white"/>
<stop offset="1" stop-color="white" stop-opacity="0.0729167"/>
</linearGradient>
<linearGradient id="paint3_linear_36_735" x1="5.00733" y1="9.59998" x2="2.47111" y2="9.61752" gradientUnits="userSpaceOnUse">
<stop stop-color="#FFCB59"/>
<stop offset="1" stop-color="#EBA200"/>
</linearGradient>
</defs>
</svg>
