<svg width="30" height="30" viewBox="0 0 30 30" fill="none" xmlns="http://www.w3.org/2000/svg">
<path d="M24.175 18.1125L22.925 16.0375C22.6625 15.575 22.425 14.7 22.425 14.1875V11.025C22.425 6.95 19.1125 3.625 15.025 3.625C10.9375 3.625 7.625 6.95 7.625 11.025V14.1875C7.625 14.7 7.3875 15.575 7.125 16.025L5.8625 18.1125C5.3625 18.95 5.25 19.875 5.5625 20.725C5.8625 21.5625 6.575 22.2125 7.5 22.525C9.925 23.35 12.475 23.75 15.025 23.75C17.575 23.75 20.125 23.35 22.55 22.5375C23.425 22.25 24.1 21.5875 24.425 20.725C24.75 19.8625 24.6625 18.9125 24.175 18.1125Z" fill="#29E337"/>
<path d="M17.8135 4.15C16.951 3.8125 16.0135 3.625 15.026 3.625C14.051 3.625 13.1135 3.8 12.251 4.15C12.7885 3.1375 13.851 2.5 15.026 2.5C16.2135 2.5 17.2635 3.1375 17.8135 4.15Z" fill="white"/>
<path d="M18.5371 25.0125C18.0121 26.4625 16.6246 27.5 14.9996 27.5C14.0121 27.5 13.0371 27.1 12.3496 26.3875C11.9496 26.0125 11.6496 25.5125 11.4746 25C11.6371 25.025 11.7996 25.0375 11.9746 25.0625C12.2621 25.1 12.5621 25.1375 12.8621 25.1625C13.5746 25.225 14.2996 25.2625 15.0246 25.2625C15.7371 25.2625 16.4496 25.225 17.1496 25.1625C17.4121 25.1375 17.6746 25.125 17.9246 25.0875C18.1246 25.0625 18.3246 25.0375 18.5371 25.0125Z" fill="white"/>
</svg>
