<svg width="15" height="16" viewBox="0 0 15 16" fill="none" xmlns="http://www.w3.org/2000/svg">
<path d="M12.1875 5.18755L11.2563 6.1188L9.38126 4.2438L10.3125 3.31255C10.575 3.05005 10.9125 2.92505 11.25 2.92505C11.5875 2.92505 11.925 3.05005 12.1875 3.31255C12.7063 3.8313 12.7063 4.6688 12.1875 5.18755Z" fill="url(#paint0_linear_1_2575)"/>
<path d="M10.8187 6.5625L4.06249 13.3125C3.54374 13.8313 2.70624 13.8313 2.18749 13.3125C1.66874 12.7937 1.66874 11.9563 2.18749 11.4375L8.94374 4.6875L10.8187 6.5625Z" fill="url(#paint1_linear_1_2575)"/>
<path d="M6.21876 2.68745L6.47501 1.8187C6.50001 1.73745 6.47501 1.64995 6.41876 1.58745C6.36251 1.52495 6.26251 1.49995 6.18126 1.52495L5.31251 1.7812L4.44376 1.52495C4.36251 1.49995 4.27501 1.52495 4.21251 1.5812C4.15001 1.6437 4.13126 1.7312 4.15626 1.81245L4.40626 2.68745L4.15001 3.5562C4.12501 3.63745 4.15001 3.72495 4.20626 3.78745C4.26876 3.84995 4.35626 3.8687 4.43751 3.8437L5.31251 3.5937L6.18126 3.84995C6.20626 3.8562 6.22501 3.86245 6.25001 3.86245C6.31251 3.86245 6.36876 3.83745 6.41876 3.7937C6.48126 3.7312 6.50001 3.6437 6.47501 3.56245L6.21876 2.68745Z" fill="url(#paint2_linear_1_2575)"/>
<path d="M3.71876 6.43745L3.97501 5.5687C4.00001 5.48745 3.97501 5.39995 3.91876 5.33745C3.85626 5.27495 3.76876 5.2562 3.68751 5.2812L2.81251 5.5312L1.94376 5.27495C1.86251 5.24995 1.77501 5.27495 1.71251 5.3312C1.65001 5.3937 1.63126 5.4812 1.65626 5.56245L1.90626 6.43745L1.65001 7.3062C1.62501 7.38745 1.65001 7.47495 1.70626 7.53745C1.76876 7.59995 1.85626 7.6187 1.93751 7.5937L2.80626 7.33745L3.67501 7.5937C3.69376 7.59995 3.71876 7.59995 3.74376 7.59995C3.80626 7.59995 3.86251 7.57495 3.91251 7.5312C3.97501 7.4687 3.99376 7.3812 3.96876 7.29995L3.71876 6.43745Z" fill="url(#paint3_linear_1_2575)"/>
<path d="M13.0938 9.56247L13.35 8.69372C13.375 8.61247 13.35 8.52497 13.2938 8.46247C13.2313 8.39997 13.1438 8.38122 13.0625 8.40622L12.1938 8.66247L11.325 8.40622C11.2438 8.38122 11.1563 8.40622 11.0938 8.46247C11.0313 8.52497 11.0125 8.61247 11.0375 8.69372L11.2938 9.56247L11.0375 10.4312C11.0125 10.5125 11.0375 10.6 11.0938 10.6625C11.1563 10.725 11.2438 10.7437 11.325 10.7187L12.1938 10.4625L13.0625 10.7187C13.0813 10.725 13.1063 10.725 13.1313 10.725C13.1938 10.725 13.25 10.7 13.3 10.6562C13.3625 10.5937 13.3813 10.5062 13.3563 10.425L13.0938 9.56247Z" fill="url(#paint4_linear_1_2575)"/>
<defs>
<linearGradient id="paint0_linear_1_2575" x1="11.7777" y1="3.13899" x2="10.1813" y2="5.90553" gradientUnits="userSpaceOnUse">
<stop stop-color="#FF8C21"/>
<stop offset="1" stop-color="#E6F294"/>
</linearGradient>
<linearGradient id="paint1_linear_1_2575" x1="8.56367" y1="5.29133" x2="4.0582" y2="13.1004" gradientUnits="userSpaceOnUse">
<stop stop-color="#FF8C21"/>
<stop offset="1" stop-color="#E6F294"/>
</linearGradient>
<linearGradient id="paint2_linear_1_2575" x1="5.89937" y1="1.67249" x2="4.72533" y2="3.70444" gradientUnits="userSpaceOnUse">
<stop stop-color="#FF8C21"/>
<stop offset="1" stop-color="#E6F294"/>
</linearGradient>
<linearGradient id="paint3_linear_1_2575" x1="3.39861" y1="5.42195" x2="2.23033" y2="7.44998" gradientUnits="userSpaceOnUse">
<stop stop-color="#FF8C21"/>
<stop offset="1" stop-color="#E6F294"/>
</linearGradient>
<linearGradient id="paint4_linear_1_2575" x1="12.7819" y1="8.55185" x2="11.6165" y2="10.5758" gradientUnits="userSpaceOnUse">
<stop stop-color="#FF8C21"/>
<stop offset="1" stop-color="#E6F294"/>
</linearGradient>
</defs>
</svg>
