<svg width="60" height="60" viewBox="0 0 60 60" fill="none" xmlns="http://www.w3.org/2000/svg">
<path d="M14.1797 17.6953V12.4219C14.1797 11.9557 13.9945 11.5086 13.6648 11.1789C13.3352 10.8493 12.8881 10.6641 12.4219 10.6641C11.9557 10.6641 11.5086 10.8493 11.1789 11.1789C10.8493 11.5086 10.6641 11.9557 10.6641 12.4219V17.6953C9.26546 17.6953 7.92414 18.2509 6.93518 19.2399C5.94622 20.2288 5.39063 21.5701 5.39062 22.9688V38.7891C5.39063 40.1877 5.94622 41.529 6.93518 42.5179C7.92414 43.5069 9.26546 44.0625 10.6641 44.0625V52.8516C10.6641 53.3178 10.8493 53.7649 11.1789 54.0945C11.5086 54.4242 11.9557 54.6094 12.4219 54.6094C12.8881 54.6094 13.3352 54.4242 13.6648 54.0945C13.9945 53.7649 14.1797 53.3178 14.1797 52.8516V44.0625C15.5783 44.0625 16.9196 43.5069 17.9086 42.5179C18.8975 41.529 19.4531 40.1877 19.4531 38.7891V22.9688C19.4531 21.5701 18.8975 20.2288 17.9086 19.2399C16.9196 18.2509 15.5783 17.6953 14.1797 17.6953ZM15.9375 38.7891C15.9375 39.2553 15.7523 39.7024 15.4226 40.032C15.093 40.3617 14.6459 40.5469 14.1797 40.5469H10.6641C10.1979 40.5469 9.75076 40.3617 9.4211 40.032C9.09145 39.7024 8.90625 39.2553 8.90625 38.7891V22.9688C8.90625 22.5025 9.09145 22.0554 9.4211 21.7258C9.75076 21.3961 10.1979 21.2109 10.6641 21.2109H14.1797C14.6459 21.2109 15.093 21.3961 15.4226 21.7258C15.7523 22.0554 15.9375 22.5025 15.9375 22.9688V38.7891Z" fill="#26BC0D"/>
<path d="M31.7578 12.4219V7.14844C31.7578 6.68224 31.5726 6.23513 31.243 5.90548C30.9133 5.57582 30.4662 5.39063 30 5.39062C29.5338 5.39063 29.0867 5.57582 28.757 5.90548C28.4274 6.23513 28.2422 6.68224 28.2422 7.14844V12.4219C26.8436 12.4219 25.5023 12.9775 24.5133 13.9664C23.5243 14.9554 22.9688 16.2967 22.9688 17.6953V28.2422C22.9688 29.6408 23.5243 30.9821 24.5133 31.9711C25.5023 32.96 26.8436 33.5156 28.2422 33.5156V45.8203C28.2422 46.2865 28.4274 46.7336 28.757 47.0633C29.0867 47.3929 29.5338 47.5781 30 47.5781C30.4662 47.5781 30.9133 47.3929 31.243 47.0633C31.5726 46.7336 31.7578 46.2865 31.7578 45.8203V33.5156C33.1564 33.5156 34.4977 32.96 35.4867 31.9711C36.4757 30.9821 37.0312 29.6408 37.0312 28.2422V17.6953C37.0312 16.2967 36.4757 14.9554 35.4867 13.9664C34.4977 12.9775 33.1564 12.4219 31.7578 12.4219ZM33.5156 28.2422C33.5156 28.7084 33.3304 29.1555 33.0008 29.4851C32.6711 29.8148 32.224 30 31.7578 30H28.2422C27.776 30 27.3289 29.8148 26.9992 29.4851C26.6696 29.1555 26.4844 28.7084 26.4844 28.2422V17.6953C26.4844 17.2291 26.6696 16.782 26.9992 16.4524C27.3289 16.1227 27.776 15.9375 28.2422 15.9375H31.7578C32.224 15.9375 32.6711 16.1227 33.0008 16.4524C33.3304 16.782 33.5156 17.2291 33.5156 17.6953V28.2422Z" fill="#26BC0D"/>
<path d="M49.3359 30V14.1797C49.3359 13.7135 49.1507 13.2664 48.8211 12.9367C48.4914 12.6071 48.0443 12.4219 47.5781 12.4219C47.1119 12.4219 46.6648 12.6071 46.3352 12.9367C46.0055 13.2664 45.8203 13.7135 45.8203 14.1797V30C44.4217 30 43.0804 30.5556 42.0914 31.5446C41.1025 32.5335 40.5469 33.8748 40.5469 35.2734V44.0625C40.5469 45.4611 41.1025 46.8024 42.0914 47.7914C43.0804 48.7803 44.4217 49.3359 45.8203 49.3359V52.8516C45.8203 53.3178 46.0055 53.7649 46.3352 54.0945C46.6648 54.4242 47.1119 54.6094 47.5781 54.6094C48.0443 54.6094 48.4914 54.4242 48.8211 54.0945C49.1507 53.7649 49.3359 53.3178 49.3359 52.8516V49.3359C50.7345 49.3359 52.0759 48.7803 53.0648 47.7914C54.0538 46.8024 54.6094 45.4611 54.6094 44.0625V35.2734C54.6094 33.8748 54.0538 32.5335 53.0648 31.5446C52.0759 30.5556 50.7345 30 49.3359 30ZM51.0938 44.0625C51.0938 44.5287 50.9086 44.9758 50.5789 45.3055C50.2492 45.6351 49.8021 45.8203 49.3359 45.8203H45.8203C45.3541 45.8203 44.907 45.6351 44.5774 45.3055C44.2477 44.9758 44.0625 44.5287 44.0625 44.0625V35.2734C44.0625 34.8072 44.2477 34.3601 44.5774 34.0305C44.907 33.7008 45.3541 33.5156 45.8203 33.5156H49.3359C49.8021 33.5156 50.2492 33.7008 50.5789 34.0305C50.9086 34.3601 51.0938 34.8072 51.0938 35.2734V44.0625Z" fill="#26BC0D"/>
</svg>
