<svg width="107" height="107" viewBox="0 0 107 107" fill="none" xmlns="http://www.w3.org/2000/svg">
<g opacity="0.02">
<path d="M23.4062 30.0938V20.0625C23.4062 19.1757 23.054 18.3252 22.4269 17.6981C21.7998 17.071 20.9493 16.7188 20.0625 16.7188C19.1757 16.7188 18.3252 17.071 17.6981 17.6981C17.071 18.3252 16.7188 19.1757 16.7188 20.0625V30.0938C14.0583 30.0938 11.5068 31.1506 9.62559 33.0318C7.74436 34.9131 6.6875 37.4645 6.6875 40.125V70.2188C6.6875 72.8792 7.74436 75.4307 9.62559 77.3119C11.5068 79.1931 14.0583 80.25 16.7188 80.25V96.9688C16.7188 97.8556 17.071 98.7061 17.6981 99.3331C18.3252 99.9602 19.1757 100.312 20.0625 100.312C20.9493 100.312 21.7998 99.9602 22.4269 99.3331C23.054 98.7061 23.4062 97.8556 23.4062 96.9688V80.25C26.0667 80.25 28.6182 79.1931 30.4994 77.3119C32.3806 75.4307 33.4375 72.8792 33.4375 70.2188V40.125C33.4375 37.4645 32.3806 34.9131 30.4994 33.0318C28.6182 31.1506 26.0667 30.0938 23.4062 30.0938ZM26.75 70.2188C26.75 71.1056 26.3977 71.9561 25.7706 72.5831C25.1436 73.2102 24.2931 73.5625 23.4062 73.5625H16.7188C15.8319 73.5625 14.9814 73.2102 14.3544 72.5831C13.7273 71.9561 13.375 71.1056 13.375 70.2188V40.125C13.375 39.2382 13.7273 38.3877 14.3544 37.7606C14.9814 37.1335 15.8319 36.7812 16.7188 36.7812H23.4062C24.2931 36.7812 25.1436 37.1335 25.7706 37.7606C26.3977 38.3877 26.75 39.2382 26.75 40.125V70.2188Z" fill="white"/>
<path d="M56.8438 20.0625V10.0312C56.8438 9.14443 56.4915 8.29394 55.8644 7.66686C55.2373 7.03979 54.3868 6.6875 53.5 6.6875C52.6132 6.6875 51.7627 7.03979 51.1356 7.66686C50.5085 8.29394 50.1562 9.14443 50.1562 10.0312V20.0625C47.4958 20.0625 44.9443 21.1194 43.0631 23.0006C41.1819 24.8818 40.125 27.4333 40.125 30.0938V50.1562C40.125 52.8167 41.1819 55.3682 43.0631 57.2494C44.9443 59.1306 47.4958 60.1875 50.1562 60.1875V83.5938C50.1562 84.4806 50.5085 85.3311 51.1356 85.9581C51.7627 86.5852 52.6132 86.9375 53.5 86.9375C54.3868 86.9375 55.2373 86.5852 55.8644 85.9581C56.4915 85.3311 56.8438 84.4806 56.8438 83.5938V60.1875C59.5042 60.1875 62.0557 59.1306 63.9369 57.2494C65.8181 55.3682 66.875 52.8167 66.875 50.1562V30.0938C66.875 27.4333 65.8181 24.8818 63.9369 23.0006C62.0557 21.1194 59.5042 20.0625 56.8438 20.0625ZM60.1875 50.1562C60.1875 51.0431 59.8352 51.8936 59.2081 52.5206C58.5811 53.1477 57.7306 53.5 56.8438 53.5H50.1562C49.2694 53.5 48.4189 53.1477 47.7919 52.5206C47.1648 51.8936 46.8125 51.0431 46.8125 50.1562V30.0938C46.8125 29.2069 47.1648 28.3564 47.7919 27.7294C48.4189 27.1023 49.2694 26.75 50.1562 26.75H56.8438C57.7306 26.75 58.5811 27.1023 59.2081 27.7294C59.8352 28.3564 60.1875 29.2069 60.1875 30.0938V50.1562Z" fill="white"/>
<path d="M90.2812 53.5V23.4062C90.2812 22.5194 89.929 21.6689 89.3019 21.0419C88.6748 20.4148 87.8243 20.0625 86.9375 20.0625C86.0507 20.0625 85.2002 20.4148 84.5731 21.0419C83.946 21.6689 83.5938 22.5194 83.5938 23.4062V53.5C80.9333 53.5 78.3818 54.5569 76.5006 56.4381C74.6194 58.3193 73.5625 60.8708 73.5625 63.5312V80.25C73.5625 82.9105 74.6194 85.4619 76.5006 87.3432C78.3818 89.2244 80.9333 90.2812 83.5938 90.2812V96.9688C83.5938 97.8556 83.946 98.7061 84.5731 99.3331C85.2002 99.9602 86.0507 100.312 86.9375 100.312C87.8243 100.312 88.6748 99.9602 89.3019 99.3331C89.929 98.7061 90.2812 97.8556 90.2812 96.9688V90.2812C92.9417 90.2812 95.4932 89.2244 97.3744 87.3432C99.2556 85.4619 100.312 82.9105 100.312 80.25V63.5312C100.312 60.8708 99.2556 58.3193 97.3744 56.4381C95.4932 54.5569 92.9417 53.5 90.2812 53.5ZM93.625 80.25C93.625 81.1368 93.2727 81.9873 92.6456 82.6144C92.0186 83.2415 91.1681 83.5938 90.2812 83.5938H83.5938C82.7069 83.5938 81.8564 83.2415 81.2294 82.6144C80.6023 81.9873 80.25 81.1368 80.25 80.25V63.5312C80.25 62.6444 80.6023 61.7939 81.2294 61.1669C81.8564 60.5398 82.7069 60.1875 83.5938 60.1875H90.2812C91.1681 60.1875 92.0186 60.5398 92.6456 61.1669C93.2727 61.7939 93.625 62.6444 93.625 63.5312V80.25Z" fill="white"/>
</g>
</svg>
