<svg width="20" height="20" viewBox="0 0 20 20" fill="none" xmlns="http://www.w3.org/2000/svg">
<path d="M6.35079 5.17246C7.34273 4.37882 8.547 3.75 9.99983 3.75C13.4516 3.75 16.2498 6.54822 16.2498 10C16.2498 13.4517 13.4516 16.25 9.99983 16.25C7.2874 16.25 4.97646 14.5212 4.11262 12.1047C3.95771 11.6713 3.52064 11.3807 3.0704 11.4761L2.25517 11.6489C1.80493 11.7443 1.51345 12.1885 1.65153 12.6276C2.76756 16.176 6.08183 18.75 9.99983 18.75C14.8322 18.75 18.7498 14.8325 18.7498 10C18.7498 5.16751 14.8322 1.25 9.99983 1.25C7.68022 1.25 5.87346 2.30704 4.57381 3.39548L3.08907 1.91074C2.85074 1.67241 2.49231 1.60112 2.18092 1.7301C1.86952 1.85908 1.66648 2.16295 1.66648 2.5V7.08333C1.66648 7.54357 2.03958 7.91667 2.49982 7.91667H7.08315C7.4202 7.91667 7.72407 7.71363 7.85305 7.40223C7.98203 7.09084 7.91074 6.73241 7.67241 6.49407L6.35079 5.17246Z" fill="#FFCD1E"/>
</svg>
