<svg width="24" height="24" viewBox="0 0 24 24" fill="none" xmlns="http://www.w3.org/2000/svg">
<path fill-rule="evenodd" clip-rule="evenodd" d="M12.1522 11.8503C12.2712 11.9684 12.4329 12.0345 12.6007 12.034C12.7685 12.034 12.9298 11.9679 13.0493 11.8503L13.7229 11.1771L13.8607 11.2503C14.9003 11.7954 16.1729 11.6042 17.0063 10.7778C18.0507 9.73246 18.0507 8.03886 17.0063 6.99355C16.4575 6.44464 16.4579 5.55449 17.0073 5.00558C17.5566 4.45668 18.4463 4.45714 18.9952 5.00652C19.5436 5.55496 19.5436 6.44418 18.9952 6.99308C18.7472 7.24058 18.7468 7.6423 18.9942 7.89074C19.2417 8.13871 19.6434 8.13918 19.8919 7.89168C20.7225 7.06011 20.9142 5.78418 20.3643 4.74496L20.2908 4.60668L20.9634 3.93308C21.2104 3.68511 21.2095 3.28433 20.9615 3.0373C20.7135 2.79027 20.3128 2.79121 20.0658 3.03918L19.3922 3.70808L19.2544 3.63496C17.948 2.94355 16.3281 3.44183 15.6367 4.74824C15.0874 5.78605 15.2786 7.06105 16.1083 7.89168C16.6571 8.44058 16.6571 9.33074 16.1083 9.87964C15.5594 10.4286 14.6693 10.4286 14.1204 9.87964C13.5715 9.33074 13.5715 8.44058 14.1204 7.89168C14.3683 7.64371 14.3683 7.24152 14.1204 6.99355C13.8724 6.74558 13.4702 6.74558 13.2223 6.99355C12.3926 7.82605 12.2014 9.10152 12.7507 10.1407L12.8239 10.279L12.1508 10.9521C11.9028 11.2001 11.9028 11.6023 12.1508 11.8503H12.1522ZM6.81471 7.01558C6.28317 7.87621 5.81585 8.77433 5.41649 9.70386L5.32134 9.92558L5.11416 9.8023C4.12232 9.21027 3.01986 8.8273 1.87428 8.67824L1.29587 8.60324L1.78804 8.29011C3.24157 7.36574 4.90182 6.8173 6.61972 6.69355L7.03221 6.66402L6.81471 7.01558ZM6.72191 10.2537C6.713 10.2439 6.70456 10.235 6.69613 10.2246L6.61597 10.1243L6.668 10.0067C8.12154 6.72683 10.5214 3.75918 13.6193 1.90668C16.6454 0.0968312 20.0414 -0.453013 23.4716 0.371519L23.5972 0.401987L23.6277 0.527613C24.4536 3.95793 23.9019 7.35542 22.093 10.3821C20.2425 13.4787 17.2773 15.875 14.0013 17.3304L13.8874 17.3811L13.788 17.306C11.1186 15.2923 8.74073 12.9195 6.72191 10.2537ZM15.3124 22.1478L15.3902 22.7187L15.7005 22.2336C16.6323 20.7757 17.1849 19.1084 17.3087 17.3829L17.3377 16.9718L16.9867 17.1879C16.1223 17.72 15.2205 18.1887 14.2882 18.5904L14.0683 18.6851L14.1893 18.8914C14.7738 19.8926 15.1558 20.9989 15.3124 22.1478ZM6.31927 11.7996C8.05685 13.9718 10.0302 15.9443 12.2028 17.682L12.5093 17.9276L12.1353 18.0485C11.6848 18.1943 11.2297 18.3237 10.7699 18.4381L10.671 18.4625L10.5899 18.4006C8.71542 16.962 7.03783 15.2839 5.59929 13.4093L5.53742 13.3287L5.56179 13.2298C5.6757 12.7709 5.806 12.3167 5.95225 11.8671L6.07365 11.4936L6.31927 11.7996ZM7.43063 23.5156L7.57734 23.8001L7.78171 23.5535C8.74777 22.3887 9.43493 21.0186 9.79116 19.5476L9.8235 19.4145L9.7157 19.3306C7.83093 17.8671 6.13693 16.1726 4.67355 14.2878L4.58965 14.1795L4.45653 14.2118C2.98518 14.5676 1.61461 15.2539 0.447932 16.2185L0.201848 16.4225L0.485431 16.5696C1.03197 16.8532 1.6521 16.962 2.26239 16.8823C2.60925 16.8359 2.92846 17.0801 2.9744 17.427C3.00252 17.6384 2.92237 17.8498 2.76112 17.9895C2.00459 18.6448 1.33665 19.3564 0.844948 20.2353C0.229503 21.3345 -0.0147057 22.5345 0.0035748 23.7879L0.00638719 23.9932L0.211692 23.996C1.46555 24.0143 2.66597 23.771 3.76608 23.1565C4.64542 22.6653 5.35696 21.9978 6.01225 21.2407C6.24052 20.9754 6.64082 20.9454 6.90612 21.1742C7.06877 21.3143 7.14939 21.5267 7.1208 21.7395C7.04111 22.3489 7.14892 22.969 7.43063 23.5156Z" fill="url(#paint0_linear_1_2128)"/>
<path d="M18.7913 6.66636H9.02104V12.0364H18.7913V6.66636Z" fill="url(#paint1_linear_1_2128)"/>
<path d="M21.5099 2.85543H14.4321V8.29714H21.5099V2.85543Z" fill="url(#paint2_linear_1_2128)"/>
<defs>
<linearGradient id="paint0_linear_1_2128" x1="11.9995" y1="0.000172008" x2="11.9995" y2="23.9998" gradientUnits="userSpaceOnUse">
<stop stop-color="#FFCB59"/>
<stop offset="1" stop-color="#EBA200"/>
</linearGradient>
<linearGradient id="paint1_linear_1_2128" x1="11.9995" y1="0.000172008" x2="11.9995" y2="23.9998" gradientUnits="userSpaceOnUse">
<stop stop-color="#FFCB59"/>
<stop offset="1" stop-color="#EBA200"/>
</linearGradient>
<linearGradient id="paint2_linear_1_2128" x1="11.9995" y1="0.000172008" x2="11.9995" y2="23.9998" gradientUnits="userSpaceOnUse">
<stop stop-color="#FFCB59"/>
<stop offset="1" stop-color="#EBA200"/>
</linearGradient>
</defs>
</svg>
