<svg width="20" height="20" viewBox="0 0 20 20" fill="none" xmlns="http://www.w3.org/2000/svg">
<g clip-path="url(#clip0_36_47)">
<path fill-rule="evenodd" clip-rule="evenodd" d="M13.9941 13.9941C14.3195 13.6686 14.8472 13.6686 15.1726 13.9941L18.9226 17.7441C19.248 18.0695 19.248 18.5972 18.9226 18.9226C18.5972 19.248 18.0695 19.248 17.7441 18.9226L13.9941 15.1726C13.6686 14.8472 13.6686 14.3195 13.9941 13.9941Z" fill="white"/>
<path fill-rule="evenodd" clip-rule="evenodd" d="M0.833313 9.16668C0.833313 4.5643 4.56427 0.833344 9.16665 0.833344C13.769 0.833344 17.5 4.5643 17.5 9.16668C17.5 13.769 13.769 17.5 9.16665 17.5C4.56427 17.5 0.833313 13.769 0.833313 9.16668ZM9.16665 2.50001C5.48475 2.50001 2.49998 5.48478 2.49998 9.16668C2.49998 12.8486 5.48475 15.8333 9.16665 15.8333C12.8485 15.8333 15.8333 12.8486 15.8333 9.16668C15.8333 5.48478 12.8485 2.50001 9.16665 2.50001Z" fill="white"/>
</g>
<defs>
<clipPath id="clip0_36_47">
<rect width="20" height="20" fill="white"/>
</clipPath>
</defs>
</svg>
