<svg width="26" height="24" viewBox="0 0 26 24" fill="none" xmlns="http://www.w3.org/2000/svg">
<path d="M17.0171 7.89993L13 0V13.2666L17.0171 7.89993Z" fill="#EBA200"/>
<path d="M8.98289 7.8999L0 9.16707L13 13.2666L8.98289 7.8999Z" fill="#EBA200"/>
<path d="M13 0L8.98288 7.89993L13 13.2666V0Z" fill="#FFCB59"/>
<path d="M26 9.16707L17.0171 7.8999L13 13.2666L26 9.16707Z" fill="#FFCB59"/>
<path d="M19.5 15.3164L26 9.16711L13 13.2666L19.5 15.3164Z" fill="#EBA200"/>
<path d="M4.96579 24L13 19.9005V13.2672L4.96579 24Z" fill="#FFCB59"/>
<path d="M13 13.2666L21.0342 23.9994L19.5 15.3164L13 13.2666Z" fill="#FFCB59"/>
<path d="M0 9.16711L6.5 15.3164L13 13.2666L0 9.16711Z" fill="#FFCB59"/>
<path d="M13 19.8999L21.0342 23.9994L13 13.2666V19.8999Z" fill="#EBA200"/>
<path d="M6.50001 15.3164L4.96579 23.9994L13 13.2666L6.50001 15.3164Z" fill="#EBA200"/>
</svg>
