<svg width="25" height="24" viewBox="0 0 25 24" fill="none" xmlns="http://www.w3.org/2000/svg">
<g clip-path="url(#clip0_36_71)">
<path fill-rule="evenodd" clip-rule="evenodd" d="M22.9912 1.73208H2.25257C1.83261 1.73255 1.42998 1.89961 1.13306 2.1966C0.836125 2.49359 0.669147 2.89625 0.668762 3.31622V17.8687C0.669221 18.2887 0.836239 18.6913 1.13317 18.9882C1.4301 19.2851 1.8327 19.4522 2.25262 19.4526H7.60626L6.45862 21.4218C6.40815 21.5066 6.38122 21.6033 6.3806 21.702C6.37998 21.8006 6.4057 21.8977 6.45511 21.9831C6.5046 22.0694 6.57592 22.1411 6.66191 22.1912C6.7479 22.2412 6.84552 22.2677 6.945 22.2681H18.2987C18.3982 22.2677 18.4958 22.2412 18.5818 22.1913C18.6678 22.1413 18.7391 22.0696 18.7887 21.9833C18.8381 21.8979 18.8639 21.8008 18.8633 21.7021C18.8627 21.6034 18.8358 21.5066 18.7853 21.4218L17.6379 19.4526H22.9911C23.411 19.4521 23.8136 19.2851 24.1105 18.9882C24.4074 18.6912 24.5745 18.2887 24.575 17.8687V3.31622C24.5745 2.89626 24.4075 2.49365 24.1105 2.19669C23.8136 1.89974 23.4112 1.73259 22.9912 1.73208ZM23.825 16.6781H22.0531V7.30097C22.0531 7.20151 22.0136 7.10613 21.9433 7.0358C21.873 6.96548 21.7776 6.92597 21.6781 6.92597H19.4886C19.3891 6.92597 19.2938 6.96548 19.2234 7.0358C19.1531 7.10613 19.1136 7.20151 19.1136 7.30097V16.6781H18.23V10.8308C18.23 10.7313 18.1905 10.636 18.1201 10.5656C18.0498 10.4953 17.9544 10.4558 17.855 10.4558H15.6654C15.566 10.4558 15.4706 10.4953 15.4003 10.5656C15.3299 10.636 15.2904 10.7313 15.2904 10.8308V16.6781H14.4064V9.01327C14.4064 8.91381 14.3669 8.81843 14.2965 8.7481C14.2262 8.67777 14.1308 8.63827 14.0314 8.63827H11.8423C11.7429 8.63827 11.6475 8.67777 11.5771 8.7481C11.5068 8.81843 11.4673 8.91381 11.4673 9.01327V16.6781H10.5832V13.2397C10.5832 13.1402 10.5437 13.0449 10.4734 12.9745C10.403 12.9042 10.3077 12.8647 10.2082 12.8647H8.01914C7.91968 12.8647 7.8243 12.9042 7.75397 12.9745C7.68365 13.0449 7.64414 13.1402 7.64414 13.2397V16.6781H1.41876V3.31622C1.419 3.09514 1.50692 2.88318 1.66323 2.72684C1.81955 2.57049 2.03149 2.48254 2.25257 2.48227H22.991C23.2121 2.48249 23.4241 2.57042 23.5805 2.72677C23.7368 2.88312 23.8248 3.09511 23.825 3.31622V16.6781Z" fill="url(#paint0_linear_36_71)"/>
<path fill-rule="evenodd" clip-rule="evenodd" d="M5.81112 3.75613C5.1421 3.75615 4.48812 3.95455 3.93185 4.32625C3.37559 4.69794 2.94204 5.22624 2.68602 5.84433C2.43 6.46243 2.36301 7.14256 2.49352 7.79872C2.62403 8.45489 2.94619 9.05762 3.41925 9.53069C3.8923 10.0038 4.49502 10.3259 5.15118 10.4565C5.80734 10.587 6.48747 10.5201 7.10557 10.2641C7.72368 10.0081 8.25199 9.57455 8.62371 9.0183C8.99543 8.46205 9.19386 7.80807 9.1939 7.13906C9.19294 6.24217 8.83623 5.38229 8.20205 4.74809C7.56787 4.11388 6.70801 3.75714 5.81112 3.75613ZM12.8767 5.27158C12.7828 5.28697 12.6982 5.3375 12.6402 5.41293L8.81661 10.3836C8.75756 10.4625 8.73197 10.5615 8.74539 10.6592C8.75881 10.7569 8.81015 10.8453 8.8883 10.9054C8.96644 10.9655 9.06512 10.9924 9.16296 10.9803C9.2608 10.9682 9.34994 10.9181 9.41108 10.8407L13.0205 6.14854L16.5518 8.51502C16.6218 8.56194 16.7056 8.5839 16.7896 8.57736C16.8737 8.57082 16.953 8.53616 17.015 8.47898L20.1902 5.54723L20.0905 6.09566C20.0727 6.19349 20.0945 6.29437 20.1511 6.37611C20.2077 6.45786 20.2944 6.51379 20.3922 6.5316C20.4146 6.53554 20.4372 6.53755 20.4599 6.5376C20.5477 6.53747 20.6326 6.5066 20.7 6.45033C20.7674 6.39407 20.8129 6.31598 20.8287 6.22963L21.1169 4.64226C21.1265 4.58966 21.1247 4.53561 21.1117 4.48376C21.0987 4.4319 21.0747 4.38343 21.0414 4.34159C21.0081 4.29975 20.9663 4.26552 20.9187 4.24119C20.871 4.21686 20.8188 4.20299 20.7654 4.20051L19.1537 4.12471C19.0543 4.12008 18.9572 4.15511 18.8837 4.22209C18.8101 4.28907 18.7662 4.38252 18.7616 4.48188C18.757 4.58123 18.792 4.67836 18.859 4.75189C18.8921 4.7883 18.9321 4.81782 18.9767 4.83876C19.0213 4.85971 19.0696 4.87167 19.1187 4.87396L19.7804 4.90513L16.7233 7.72748L13.146 5.33006C13.0669 5.2771 12.9706 5.25619 12.8767 5.27158ZM6.0979 12.3356C6.0979 12.2362 6.0584 12.1408 5.98807 12.0705C5.91774 12.0001 5.82236 11.9606 5.7229 11.9606H3.41548C3.31603 11.9606 3.22064 12.0001 3.15032 12.0705C3.07999 12.1408 3.04048 12.2362 3.04048 12.3356C3.04048 12.4351 3.07999 12.5305 3.15032 12.6008C3.22064 12.6711 3.31603 12.7106 3.41548 12.7106H5.7229C5.82236 12.7106 5.91774 12.6711 5.98807 12.6008C6.0584 12.5305 6.0979 12.4351 6.0979 12.3356ZM3.41548 13.3619H5.7229C5.82236 13.3619 5.91774 13.4014 5.98807 13.4717C6.0584 13.542 6.0979 13.6374 6.0979 13.7369C6.0979 13.8363 6.0584 13.9317 5.98807 14.002C5.91774 14.0723 5.82236 14.1119 5.7229 14.1119H3.41548C3.31603 14.1119 3.22064 14.0723 3.15032 14.002C3.07999 13.9317 3.04048 13.8363 3.04048 13.7369C3.04048 13.6374 3.07999 13.542 3.15032 13.4717C3.22064 13.4014 3.31603 13.3619 3.41548 13.3619ZM3.41548 14.7634H5.7229C5.82236 14.7634 5.91774 14.8029 5.98807 14.8733C6.0584 14.9436 6.0979 15.039 6.0979 15.1384C6.0979 15.2379 6.0584 15.3333 5.98807 15.4036C5.91774 15.4739 5.82236 15.5134 5.7229 15.5134H3.41548C3.31603 15.5134 3.22064 15.4739 3.15032 15.4036C3.07999 15.3333 3.04048 15.2379 3.04048 15.1384C3.04048 15.039 3.07999 14.9436 3.15032 14.8733C3.22064 14.8029 3.31603 14.7634 3.41548 14.7634ZM6.18639 4.53328C6.8554 4.63021 7.46152 4.98071 7.87923 5.51222L6.18634 6.48937L6.18639 4.53328ZM6.56378 7.13761L8.25507 6.16111C8.50627 6.78568 8.50744 7.48297 8.25836 8.10839L6.56378 7.13761Z" fill="url(#paint1_linear_36_71)"/>
</g>
<defs>
<linearGradient id="paint0_linear_36_71" x1="11.2957" y1="1.73208" x2="11.2957" y2="22.2681" gradientUnits="userSpaceOnUse">
<stop stop-color="#666B67"/>
<stop offset="1" stop-color="#08100A"/>
</linearGradient>
<linearGradient id="paint1_linear_36_71" x1="21.1778" y1="3.75614" x2="2.24464" y2="4.54687" gradientUnits="userSpaceOnUse">
<stop stop-color="#FFCB59"/>
<stop offset="1" stop-color="#EBA200"/>
</linearGradient>
<clipPath id="clip0_36_71">
<rect width="24" height="24" fill="white" transform="translate(0.621887)"/>
</clipPath>
</defs>
</svg>
