<svg width="16" height="14" viewBox="0 0 16 14" fill="none" xmlns="http://www.w3.org/2000/svg">
<path d="M15.3348 7L13.6711 5.14L13.903 2.68L11.4416 2.13333L10.153 0L7.83478 0.973333L5.5166 0L4.22796 2.12667L1.7666 2.66667L1.99841 5.13333L0.334778 7L1.99841 8.86L1.7666 11.3267L4.22796 11.8733L5.5166 14L7.83478 13.02L10.153 13.9933L11.4416 11.8667L13.903 11.32L13.6711 8.86L15.3348 7ZM6.04841 9.67333L4.42569 8.07333C4.36248 8.01166 4.31233 7.9384 4.27812 7.85775C4.2439 7.7771 4.22629 7.69065 4.22629 7.60333C4.22629 7.51602 4.2439 7.42957 4.27812 7.34892C4.31233 7.26827 4.36248 7.19501 4.42569 7.13333L4.47341 7.08667C4.73932 6.82667 5.17569 6.82667 5.4416 7.08667L6.53932 8.16667L10.0507 4.72667C10.3166 4.46667 10.753 4.46667 11.0189 4.72667L11.0666 4.77333C11.3325 5.03333 11.3325 5.45333 11.0666 5.71333L7.03023 9.67333C6.75069 9.93333 6.32114 9.93333 6.04841 9.67333Z" fill="#26BC0D"/>
</svg>
