<svg width="273" height="53" viewBox="0 0 273 53" fill="none" xmlns="http://www.w3.org/2000/svg">
<path d="M8.33478 24.8927L252.335 24.8927" stroke="white" stroke-width="2" stroke-linecap="round"/>
<path d="M8.33478 24.8927L52.3348 24.8927" stroke="#FF1D1D" stroke-width="2" stroke-linecap="round"/>
<path d="M54.3348 24.8927L168.335 24.8927" stroke="#26BC0D" stroke-width="2" stroke-linecap="round"/>
<g filter="url(#filter0_d_36_543)">
<circle cx="53.3348" cy="24.8927" r="3" fill="white"/>
</g>
<g filter="url(#filter1_d_36_543)">
<circle cx="252.335" cy="24.8927" r="3" fill="white"/>
</g>
<circle cx="167.335" cy="24.8927" r="4.5" stroke="white"/>
<circle cx="167.335" cy="24.8927" r="3" fill="white"/>
<path d="M38.3602 15.8927V7.43762H43.9617V8.89661H40.1297V10.9357H43.7449V12.295H40.1297V14.4337H43.9617V15.8927H38.3602ZM45.6551 15.8927V9.44153H47.366V10.4376H47.4715C47.7645 9.74036 48.4031 9.3009 49.3231 9.3009C50.7586 9.3009 51.532 10.1798 51.532 11.7208V15.8927H49.8211V12.1075C49.8211 11.1993 49.4461 10.7189 48.6375 10.7189C47.8465 10.7189 47.366 11.2872 47.366 12.1603V15.8927H45.6551ZM55.868 15.9161C54.2977 15.9161 53.6649 15.4064 53.6649 14.1525V10.7306H52.6688V9.44153H53.6649V7.90051H55.3934V9.44153H56.7234V10.7306H55.3934V13.7599C55.3934 14.34 55.6395 14.5978 56.2195 14.5978C56.4422 14.5978 56.5594 14.5861 56.7234 14.5685V15.84C56.5125 15.881 56.1961 15.9161 55.868 15.9161ZM58.1473 15.8927V9.44153H59.8582V10.4435H59.9637C60.1688 9.74622 60.7547 9.33606 61.5926 9.33606C61.8211 9.33606 62.0613 9.37122 62.2313 9.41809V10.9122C61.9734 10.8536 61.7098 10.8126 61.4461 10.8126C60.4734 10.8126 59.8582 11.3693 59.8582 12.2833V15.8927H58.1473ZM64.2352 18.1661C64.0359 18.1661 63.8192 18.1603 63.6199 18.1486V16.8595C63.7371 16.8712 63.907 16.8771 64.0652 16.8771C64.6746 16.8771 65.0262 16.6427 65.1492 16.1388L65.2078 15.8927L62.9402 9.44153H64.8211L66.1746 14.3282H66.2918L67.6453 9.44153H69.45L67.2527 15.8868C66.6785 17.5919 65.8289 18.1661 64.2352 18.1661Z" fill="white"/>
<path d="M236.411 15.8927V8.89661H233.874V7.43762H240.718V8.89661H238.18V15.8927H236.411ZM242.757 15.9923C241.526 15.9923 240.653 15.2306 240.653 14.0587V14.047C240.653 12.8868 241.55 12.2072 243.155 12.1134L244.714 12.0197V11.4865C244.714 10.9298 244.333 10.6134 243.63 10.6134C243.014 10.6134 242.622 10.8302 242.487 11.2111L242.475 11.2345H240.893L240.899 11.1818C241.034 10.0509 242.1 9.3009 243.723 9.3009C245.434 9.3009 246.401 10.1095 246.401 11.4865V15.8927H244.714V15.0372H244.608C244.28 15.6349 243.6 15.9923 242.757 15.9923ZM242.323 13.9532C242.323 14.4454 242.739 14.7443 243.331 14.7443C244.122 14.7443 244.714 14.2228 244.714 13.5431V13.0685L243.413 13.1505C242.68 13.1974 242.323 13.4728 242.323 13.9415V13.9532ZM248.077 15.8927V9.44153H249.788V10.4435H249.893C250.098 9.74622 250.684 9.33606 251.522 9.33606C251.751 9.33606 251.991 9.37122 252.161 9.41809V10.9122C251.903 10.8536 251.639 10.8126 251.376 10.8126C250.403 10.8126 249.788 11.3693 249.788 12.2833V15.8927H248.077ZM255.999 18.1603C254.212 18.1603 253.175 17.4103 253.034 16.3146V16.2853H254.727L254.733 16.3087C254.827 16.6837 255.272 16.9415 256.034 16.9415C256.948 16.9415 257.481 16.5138 257.481 15.7638V14.5626H257.376C257.018 15.2423 256.339 15.6115 255.442 15.6115C253.819 15.6115 252.817 14.3575 252.817 12.5236V12.5118C252.817 10.6134 253.819 9.33606 255.471 9.33606C256.356 9.33606 257.048 9.76965 257.393 10.4962H257.475V9.44153H259.186V15.6935C259.186 17.2052 257.95 18.1603 255.999 18.1603ZM256.022 14.299C256.948 14.299 257.499 13.5782 257.499 12.5177V12.506C257.499 11.4454 256.942 10.7247 256.022 10.7247C255.102 10.7247 254.569 11.4454 254.569 12.506V12.5177C254.569 13.5782 255.096 14.299 256.022 14.299ZM263.733 16.0275C261.77 16.0275 260.581 14.7443 260.581 12.6759V12.67C260.581 10.6193 261.782 9.3009 263.663 9.3009C265.544 9.3009 266.716 10.59 266.716 12.5411V13.0743H262.274C262.292 14.1349 262.86 14.7501 263.768 14.7501C264.518 14.7501 264.934 14.3517 265.052 14.1056L265.069 14.0704H266.663L266.651 14.129C266.452 14.9376 265.62 16.0275 263.733 16.0275ZM263.692 10.5841C262.948 10.5841 262.397 11.088 262.292 12.0021H265.075C264.97 11.0646 264.436 10.5841 263.692 10.5841ZM270.794 15.9161C269.223 15.9161 268.591 15.4064 268.591 14.1525V10.7306H267.595V9.44153H268.591V7.90051H270.319V9.44153H271.649V10.7306H270.319V13.7599C270.319 14.34 270.565 14.5978 271.145 14.5978C271.368 14.5978 271.485 14.5861 271.649 14.5685V15.84C271.438 15.881 271.122 15.9161 270.794 15.9161Z" fill="white"/>
<path d="M4.38361 39.1095C2.36212 39.1095 1.08478 38.1427 0.985168 36.6427L0.979309 36.549H2.68439L2.69025 36.6075C2.7547 37.2404 3.44025 37.6681 4.43048 37.6681C5.37384 37.6681 6.02423 37.2169 6.02423 36.5665V36.5607C6.02423 36.004 5.60822 35.6935 4.55939 35.4767L3.66876 35.295C1.91095 34.9376 1.15509 34.1173 1.15509 32.8341V32.8282C1.15509 31.2579 2.50275 30.2208 4.37775 30.2208C6.35236 30.2208 7.51251 31.2638 7.62384 32.6759L7.6297 32.7521H5.96564L5.95392 32.6818C5.85431 32.0782 5.26837 31.6564 4.37775 31.6564C3.5047 31.6622 2.92462 32.0607 2.92462 32.6935V32.6993C2.92462 33.2501 3.33478 33.5782 4.33087 33.7833L5.22736 33.965C7.01447 34.3341 7.79376 35.049 7.79376 36.3673V36.3732C7.79376 38.049 6.49298 39.1095 4.38361 39.1095ZM9.46954 38.8927V30.4376H11.2391V37.4337H15.0008V38.8927H9.46954Z" fill="white"/>
<path d="M53.4256 31.6808C54.7147 31.6808 56.077 32.589 56.077 35.2404V35.2501C56.077 37.6525 55.076 39.0587 53.367 39.0587C52.1854 39.0587 51.3065 38.3654 51.0672 37.3253L51.0526 37.2618H51.9363L51.9559 37.3156C52.1707 37.9064 52.6639 38.2726 53.3768 38.2726C54.6561 38.2726 55.1785 37.0226 55.2322 35.5529C55.2371 35.4991 55.2371 35.4406 55.2371 35.3868H55.1443C54.8856 35.963 54.2215 36.4757 53.2693 36.4757C51.9461 36.4757 50.9598 35.4698 50.9598 34.1173V34.1075C50.9598 32.7013 52.0047 31.6808 53.4256 31.6808ZM53.4207 35.7091C54.3338 35.7091 55.0272 35.0402 55.0272 34.1222V34.1173C55.0272 33.1896 54.3289 32.4572 53.4354 32.4572C52.5516 32.4572 51.8436 33.1749 51.8436 34.088V34.0978C51.8436 35.0353 52.5076 35.7091 53.4207 35.7091ZM61.9217 39.0587C60.701 39.0587 60.0125 38.3019 59.9393 37.2911L59.9344 37.2228H60.8133L60.8182 37.2716C60.8719 37.8038 61.2186 38.2482 61.9168 38.2482C62.6981 38.2482 63.118 37.7843 63.118 36.9249V31.8468H63.9969V36.9347C63.9969 38.2677 63.2254 39.0587 61.9217 39.0587ZM67.449 38.9855C66.2527 38.9855 65.6375 38.2823 65.6375 37.0372V33.629H66.4871V36.8322C66.4871 37.7794 66.8289 38.2335 67.6688 38.2335C68.5965 38.2335 69.0897 37.6671 69.0897 36.7443V33.629H69.9393V38.8927H69.0897V38.1066H69.0115C68.7527 38.6681 68.2205 38.9855 67.449 38.9855ZM71.575 38.8927V31.5392H72.4246V38.8927H71.575ZM74.5047 40.7384C74.3924 40.7384 74.2459 40.7286 74.1287 40.7091V40.0109C74.2313 40.0304 74.3631 40.0353 74.4803 40.0353C74.9637 40.0353 75.2567 39.8156 75.4471 39.2101L75.5447 38.8976L73.5965 33.629H74.5047L75.95 37.9601H76.0281L77.4686 33.629H78.3621L76.3065 39.215C75.8719 40.3966 75.4373 40.7384 74.5047 40.7384Z" fill="white"/>
<path d="M52.8445 50.8927V44.8234H52.7664L50.9744 46.1222V45.1945L52.8494 43.8468H53.7234V50.8927H52.8445ZM55.7596 50.8927V50.2872L58.1424 47.7091C59.0408 46.7374 59.3045 46.3712 59.3045 45.756V45.7462C59.3045 45.004 58.8016 44.4474 57.9715 44.4474C57.1268 44.4474 56.5652 44.9991 56.5652 45.8292L56.5604 45.839L55.7205 45.8341L55.7108 45.8292C55.7156 44.5792 56.6824 43.6808 58.0301 43.6808C59.2606 43.6808 60.2029 44.5157 60.2029 45.6534V45.6632C60.2029 46.4689 59.8563 47.0548 58.5818 48.3683L56.9803 50.0236V50.1017H60.3201V50.8927H55.7596ZM62.493 46.1124C62.1463 46.1124 61.8582 45.8243 61.8582 45.4777C61.8582 45.1261 62.1463 44.8429 62.493 44.8429C62.8445 44.8429 63.1277 45.1261 63.1277 45.4777C63.1277 45.8243 62.8445 46.1124 62.493 46.1124ZM62.493 49.8917C62.1463 49.8917 61.8582 49.6036 61.8582 49.257C61.8582 48.9054 62.1463 48.6222 62.493 48.6222C62.8445 48.6222 63.1277 48.9054 63.1277 49.257C63.1277 49.6036 62.8445 49.8917 62.493 49.8917ZM67.1219 51.0587C65.5643 51.0587 64.6365 49.6378 64.6365 47.3722V47.3624C64.6365 45.0968 65.5643 43.6808 67.1219 43.6808C68.6795 43.6808 69.617 45.0968 69.617 47.3624V47.3722C69.617 49.6378 68.6795 51.0587 67.1219 51.0587ZM67.1219 50.2921C68.1326 50.2921 68.7332 49.1691 68.7332 47.3722V47.3624C68.7332 45.5656 68.1326 44.4523 67.1219 44.4523C66.1111 44.4523 65.5203 45.5656 65.5203 47.3624V47.3722C65.5203 49.1691 66.1111 50.2921 67.1219 50.2921ZM71.0623 50.8927V50.2872L73.4451 47.7091C74.3436 46.7374 74.6072 46.3712 74.6072 45.756V45.7462C74.6072 45.004 74.1043 44.4474 73.2742 44.4474C72.4295 44.4474 71.868 44.9991 71.868 45.8292L71.8631 45.839L71.0233 45.8341L71.0135 45.8292C71.0184 44.5792 71.9852 43.6808 73.3328 43.6808C74.5633 43.6808 75.5057 44.5157 75.5057 45.6534V45.6632C75.5057 46.4689 75.159 47.0548 73.8846 48.3683L72.283 50.0236V50.1017H75.6229V50.8927H71.0623ZM80.0223 50.8927V43.8468H82.6785C84.0018 43.8468 84.9393 44.7599 84.9393 46.0978V46.1075C84.9393 47.4454 84.0018 48.3781 82.6785 48.3781H80.9012V50.8927H80.0223ZM82.4539 44.6281H80.9012V47.5968H82.4539C83.4598 47.5968 84.0408 47.045 84.0408 46.1173V46.1075C84.0408 45.1798 83.4598 44.6281 82.4539 44.6281ZM86.3797 50.8927V43.8468H87.4002L89.8123 49.7257H89.8904L92.3026 43.8468H93.3231V50.8927H92.5027V45.5118H92.449L90.2225 50.8927H89.4803L87.2537 45.5118H87.2V50.8927H86.3797Z" fill="white"/>
<rect x="150.335" y="0.8927" width="35" height="16" rx="4" fill="#FF1D1D"/>
<circle cx="155.835" cy="8.8927" r="2.5" fill="white"/>
<path d="M163.219 12.8927V5.8468H164.312V11.9503H167.613V12.8927H163.219ZM169.43 6.6427C169.063 6.6427 168.765 6.34485 168.765 5.98352C168.765 5.61731 169.063 5.31946 169.43 5.31946C169.791 5.31946 170.094 5.61731 170.094 5.98352C170.094 6.34485 169.791 6.6427 169.43 6.6427ZM168.897 12.8927V7.58997H169.952V12.8927H168.897ZM172.955 12.8927L171.036 7.58997H172.159L173.482 11.8185H173.565L174.884 7.58997H175.997L174.083 12.8927H172.955ZM179.083 12.9952C177.53 12.9952 176.593 11.9357 176.593 10.256V10.2511C176.593 8.59583 177.55 7.48743 179.029 7.48743C180.509 7.48743 181.417 8.55676 181.417 10.1486V10.5197H177.657C177.677 11.5353 178.233 12.1261 179.107 12.1261C179.786 12.1261 180.191 11.7892 180.318 11.5157L180.338 11.4767L181.358 11.4718L181.348 11.5157C181.173 12.214 180.44 12.9952 179.083 12.9952ZM179.034 8.35657C178.311 8.35657 177.764 8.84973 177.672 9.76282H180.367C180.284 8.81555 179.752 8.35657 179.034 8.35657Z" fill="white"/>
<defs>
<filter id="filter0_d_36_543" x="50.3348" y="21.8927" width="8" height="8" filterUnits="userSpaceOnUse" color-interpolation-filters="sRGB">
<feFlood flood-opacity="0" result="BackgroundImageFix"/>
<feColorMatrix in="SourceAlpha" type="matrix" values="0 0 0 0 0 0 0 0 0 0 0 0 0 0 0 0 0 0 127 0" result="hardAlpha"/>
<feOffset dx="1" dy="1"/>
<feGaussianBlur stdDeviation="0.5"/>
<feComposite in2="hardAlpha" operator="out"/>
<feColorMatrix type="matrix" values="0 0 0 0 0 0 0 0 0 0 0 0 0 0 0 0 0 0 0.1 0"/>
<feBlend mode="normal" in2="BackgroundImageFix" result="effect1_dropShadow_36_543"/>
<feBlend mode="normal" in="SourceGraphic" in2="effect1_dropShadow_36_543" result="shape"/>
</filter>
<filter id="filter1_d_36_543" x="249.335" y="21.8927" width="8" height="8" filterUnits="userSpaceOnUse" color-interpolation-filters="sRGB">
<feFlood flood-opacity="0" result="BackgroundImageFix"/>
<feColorMatrix in="SourceAlpha" type="matrix" values="0 0 0 0 0 0 0 0 0 0 0 0 0 0 0 0 0 0 127 0" result="hardAlpha"/>
<feOffset dx="1" dy="1"/>
<feGaussianBlur stdDeviation="0.5"/>
<feComposite in2="hardAlpha" operator="out"/>
<feColorMatrix type="matrix" values="0 0 0 0 0 0 0 0 0 0 0 0 0 0 0 0 0 0 0.1 0"/>
<feBlend mode="normal" in2="BackgroundImageFix" result="effect1_dropShadow_36_543"/>
<feBlend mode="normal" in="SourceGraphic" in2="effect1_dropShadow_36_543" result="shape"/>
</filter>
</defs>
</svg>
