<svg width="24" height="24" viewBox="0 0 24 24" fill="none" xmlns="http://www.w3.org/2000/svg">
<g clip-path="url(#clip0_36_18)">
<path fill-rule="evenodd" clip-rule="evenodd" d="M9.17081 19.6569C9.26264 20.5331 9.19983 21.525 9.04552 22.4222H6.69117C6.36755 22.4222 6.10523 22.6845 6.10523 23.0082C6.10523 23.3318 6.36755 23.5941 6.69117 23.5941H17.2888C17.6124 23.5941 17.8747 23.3318 17.8747 23.0082C17.8747 22.6846 17.6124 22.4222 17.2888 22.4222H14.9272C14.7606 21.525 14.6858 20.5331 14.777 19.6569H21.8756C22.79 19.6569 23.5312 18.9156 23.5312 18.0012C23.5312 13.5053 23.5312 9.00926 23.5312 4.51329C23.5312 3.73873 22.8995 3.10704 22.125 3.10704H19.7086V4.13829H22.125C22.3303 4.13829 22.5 4.30798 22.5 4.51329V16.3636H1.5V4.51324C1.5 4.30793 1.66969 4.13824 1.875 4.13824H4.89783V3.10699H1.875C1.10048 3.10699 0.46875 3.73868 0.46875 4.51324V18.0012C0.46875 18.9156 1.20994 19.6568 2.12437 19.6568L9.17081 19.6569Z" fill="url(#paint0_linear_36_18)"/>
<path d="M13.8983 14.4172C14.1572 14.4172 14.367 14.2074 14.367 13.9485V11.4259H14.5047C14.7629 11.4259 14.9735 11.2153 14.9735 10.9571V7.62092C14.9735 7.36273 14.7629 7.15217 14.5047 7.15217H14.367V4.62945C14.367 4.37056 14.1572 4.1607 13.8983 4.1607C13.6394 4.1607 13.4295 4.37056 13.4295 4.62945V7.15213H13.2918C13.0336 7.15213 12.8231 7.36269 12.8231 7.62088V10.9571C12.8231 11.2153 13.0336 11.4258 13.2918 11.4258H13.4295V13.9485C13.4295 14.2074 13.6394 14.4172 13.8983 14.4172Z" fill="url(#paint1_linear_36_18)"/>
<path d="M18.7708 7.20266V3.86647C18.7708 3.60828 18.5602 3.39772 18.302 3.39772H18.1643V0.875C18.1643 0.616109 17.9545 0.40625 17.6956 0.40625C17.4367 0.40625 17.2268 0.616109 17.2268 0.875V3.39772H17.0891C16.8309 3.39772 16.6204 3.60828 16.6204 3.86647V7.20266C16.6204 7.46084 16.8309 7.67141 17.0891 7.67141H17.2268V10.1941C17.2268 10.453 17.4367 10.6629 17.6956 10.6629C17.9545 10.6629 18.1643 10.453 18.1643 10.1941V7.67141H18.302C18.5602 7.67141 18.7708 7.46084 18.7708 7.20266Z" fill="url(#paint2_linear_36_18)"/>
<path d="M7.37895 10.9571V7.62088C7.37895 7.36273 7.16839 7.15217 6.9102 7.15217H6.77248V4.62945C6.77248 4.37056 6.56262 4.1607 6.30373 4.1607C6.04484 4.1607 5.83498 4.37056 5.83498 4.62945V7.15213H5.69727C5.43908 7.15213 5.22852 7.36269 5.22852 7.62088V10.9571C5.22852 11.2153 5.43908 11.4258 5.69727 11.4258H5.83498V13.9485C5.83498 14.2074 6.04484 14.4172 6.30373 14.4172C6.56262 14.4172 6.77248 14.2074 6.77248 13.9485V11.4258H6.9102C7.16839 11.4258 7.37895 11.2153 7.37895 10.9571Z" fill="url(#paint3_linear_36_18)"/>
<path d="M11.1762 7.20266V3.86647C11.1762 3.60828 10.9656 3.39772 10.7075 3.39772H10.5697V0.875C10.5697 0.616109 10.3599 0.40625 10.101 0.40625C9.84209 0.40625 9.63223 0.616109 9.63223 0.875V3.39772H9.49456C9.23638 3.39772 9.02581 3.60828 9.02581 3.86647V7.20266C9.02581 7.46084 9.23638 7.67141 9.49456 7.67141H9.63223V10.1941C9.63223 10.453 9.84209 10.6629 10.101 10.6629C10.3599 10.6629 10.5697 10.453 10.5697 10.1941V7.67141H10.7075C10.9656 7.67141 11.1762 7.46084 11.1762 7.20266Z" fill="url(#paint4_linear_36_18)"/>
</g>
<defs>
<linearGradient id="paint0_linear_36_18" x1="10.7206" y1="3.10699" x2="10.7206" y2="23.5941" gradientUnits="userSpaceOnUse">
<stop stop-color="#666B67"/>
<stop offset="1" stop-color="#08100A"/>
</linearGradient>
<linearGradient id="paint1_linear_36_18" x1="18.8105" y1="0.406263" x2="5.08023" y2="0.754836" gradientUnits="userSpaceOnUse">
<stop stop-color="#FFCB59"/>
<stop offset="1" stop-color="#EBA200"/>
</linearGradient>
<linearGradient id="paint2_linear_36_18" x1="18.8105" y1="0.406263" x2="5.08023" y2="0.754836" gradientUnits="userSpaceOnUse">
<stop stop-color="#FFCB59"/>
<stop offset="1" stop-color="#EBA200"/>
</linearGradient>
<linearGradient id="paint3_linear_36_18" x1="18.8105" y1="0.406263" x2="5.08023" y2="0.754836" gradientUnits="userSpaceOnUse">
<stop stop-color="#FFCB59"/>
<stop offset="1" stop-color="#EBA200"/>
</linearGradient>
<linearGradient id="paint4_linear_36_18" x1="18.8105" y1="0.406263" x2="5.08023" y2="0.754836" gradientUnits="userSpaceOnUse">
<stop stop-color="#FFCB59"/>
<stop offset="1" stop-color="#EBA200"/>
</linearGradient>
<clipPath id="clip0_36_18">
<rect width="24" height="24" fill="white"/>
</clipPath>
</defs>
</svg>
