<svg width="357" height="191" viewBox="0 0 357 191" fill="none" xmlns="http://www.w3.org/2000/svg">
<path d="M2 33.1085C2 15.7391 16.6723 1.97168 34.0143 2.94676C69.7457 4.9558 129.043 7.79855 178.5 7.79855C227.957 7.79855 287.254 4.9558 322.986 2.94676C340.328 1.97168 355 15.7391 355 33.1085V158.54C355 175.668 340.703 189.333 323.589 188.635C286.548 187.125 224.241 184.901 178.5 184.901C132.759 184.901 70.4517 187.125 33.4106 188.635C16.2969 189.333 2 175.668 2 158.54V33.1085Z" fill="#0C110E"/>
<path d="M34.0704 1.94834C16.1595 0.941273 1 15.1602 1 33.1085V158.54C1 176.239 15.7725 190.356 33.4514 189.635C70.4923 188.124 132.782 185.901 178.5 185.901C224.218 185.901 286.508 188.124 323.549 189.635C341.228 190.356 356 176.239 356 158.54V33.1085C356 15.1602 340.84 0.941273 322.93 1.94834C287.202 3.95717 227.928 6.79855 178.5 6.79855C129.072 6.79855 69.7982 3.95717 34.0704 1.94834Z" stroke="white" stroke-opacity="0.15" stroke-width="2"/>
</svg>
